<svg id="Layer_1" data-name="Layer 1" xmlns="http://www.w3.org/2000/svg" viewBox="0 0 526.97 57.31"><defs><style>.cls-1{fill:#201747;}.cls-2{fill:#ffcd00;}.cls-3{fill:#00bed6;}.cls-4{fill:#c600cf;}</style></defs><title>VSA_Logo_Landscape_on_white_RGB</title><path class="cls-1" d="M519.42,30.44h.38a.29.29,0,0,0,.28-.28V26.85h1a.27.27,0,0,0,.27-.28v-.35a.27.27,0,0,0-.27-.27h-2.88a.28.28,0,0,0-.27.27v.35a.28.28,0,0,0,.27.28h1v3.31A.28.28,0,0,0,519.42,30.44Zm2.66,0h.33a.31.31,0,0,0,.28-.24l.44-2.12.94,2.25a.32.32,0,0,0,.25.15h.08a.29.29,0,0,0,.24-.13l1-2.27.4,2.11a.32.32,0,0,0,.28.25h.38a.27.27,0,0,0,.27-.32l-.77-4a.31.31,0,0,0-.28-.21h0a.31.31,0,0,0-.25.16l-1.25,2.89L523.14,26a.31.31,0,0,0-.25-.16h0a.29.29,0,0,0-.28.21l-.76,4a.29.29,0,0,0,.28.34m-18.43,12a9.16,9.16,0,0,0,5.76,1.79c3.89,0,6.47-2.4,6.47-5.11,0-3.28-2.62-4.63-5.81-6-1.71-.74-2.8-1.22-2.8-2.36,0-.65.48-1.31,2-1.31a10,10,0,0,1,3.58.92A.92.92,0,0,0,514,30l.79-1.48a1,1,0,0,0-.35-1.27,9.76,9.76,0,0,0-5.15-1.36c-4.2,0-6,2.63-6,4.81,0,2.88,2.28,4.54,5,5.72,2.4,1.09,3.37,1.66,3.37,2.84,0,1-.83,1.48-2.14,1.48a9.14,9.14,0,0,1-4.07-1.13.75.75,0,0,0-1.09.22l-.91,1.7a.74.74,0,0,0,.26.92m-15.94-9.31a4.41,4.41,0,0,1,4.45-3.88,4.13,4.13,0,0,1,4,3.88Zm-4.24,1.93c0,5,3.49,9.17,8.78,9.17A10,10,0,0,0,498.71,42a.67.67,0,0,0,.09-1.13l-1.22-1.66c-.35-.44-.66-.26-1.18,0a7.47,7.47,0,0,1-3.89,1.27,5,5,0,0,1-5-4.67h11.88a.8.8,0,0,0,.78-.75,9.23,9.23,0,0,0,.09-1.18,7.87,7.87,0,0,0-8-8.08c-5.24,0-8.73,4.24-8.73,9.18m-12.71,4c0,3.1,1,5.2,4.46,5.2a13.49,13.49,0,0,0,5.11-1.31.73.73,0,0,0,.39-1.05L479.93,40a.65.65,0,0,0-1-.4,7,7,0,0,1-2.67.79c-.83,0-1.39-.26-1.39-1.75V30h4.45a.83.83,0,0,0,.83-.83v-2a.8.8,0,0,0-.83-.83h-4.45V21.43a.82.82,0,0,0-.79-.83l-2.49,0a.86.86,0,0,0-.83.83v4.85h-1.83a.8.8,0,0,0-.83.83v2a.83.83,0,0,0,.83.83h1.83Zm-17.08-.7c0-1.79,1.45-2.88,3.54-2.88a6.52,6.52,0,0,1,3.06.7v2.79a5.14,5.14,0,0,1-3.93,2.19,2.63,2.63,0,0,1-2.67-2.8m-3.8.05c0,3.62,2.36,5.85,5.64,5.85A7.51,7.51,0,0,0,460.89,42l.44,1.18c.17.44.35.61.74.61h1.22a.85.85,0,0,0,.83-.83v-9.3c0-4.37-.52-7.78-6.11-7.78a18,18,0,0,0-6,1,.79.79,0,0,0-.57,1l.35,1.62c.13.48.44.83,1,.7a18.71,18.71,0,0,1,4.9-.79c2.22,0,2.75,1.09,2.7,3.85a12.39,12.39,0,0,0-3.45-.53c-4.45,0-7,2.45-7,5.64M441.33,43a.85.85,0,0,0,.82.83h2.5a.85.85,0,0,0,.82-.83V27.15a.86.86,0,0,0-.82-.83h-2.5a.86.86,0,0,0-.82.83Zm2-23.76a2.56,2.56,0,1,0,0-5.11,2.56,2.56,0,0,0,0,5.11M421.06,35.1a9.1,9.1,0,0,0,9.13,9.13A7.75,7.75,0,0,0,437,40.56c.3-.44.13-.87-.31-1.22l-1.18-1a.8.8,0,0,0-1.18.08,5.06,5.06,0,0,1-9.08-3.4,5.21,5.21,0,0,1,5.07-5.38,4.87,4.87,0,0,1,3.49,1.66c.35.31.66.66,1.18.18l1.44-1.31a.86.86,0,0,0,.18-1.22,7.76,7.76,0,0,0-6.34-3.11,9.3,9.3,0,0,0-9.17,9.22M404.25,35a4.95,4.95,0,1,1,9.87,0,5,5,0,1,1-9.87,0m-3.89,0a8.83,8.83,0,1,0,8.82-9.13A9.06,9.06,0,0,0,400.36,35m-15.11,7.43A9.18,9.18,0,0,0,391,44.23c3.89,0,6.47-2.4,6.47-5.11,0-3.28-2.62-4.63-5.81-6-1.7-.74-2.8-1.22-2.8-2.36,0-.65.48-1.31,2-1.31a10,10,0,0,1,3.58.92.93.93,0,0,0,1.14-.35l.78-1.48a1,1,0,0,0-.35-1.27,9.73,9.73,0,0,0-5.15-1.36c-4.19,0-6,2.63-6,4.81,0,2.88,2.27,4.54,5,5.72,2.41,1.09,3.37,1.66,3.37,2.84,0,1-.83,1.48-2.14,1.48A9.07,9.07,0,0,1,387,39.6a.76.76,0,0,0-1.1.22l-.91,1.7a.74.74,0,0,0,.26.92m-15.64,0a9.19,9.19,0,0,0,5.77,1.79c3.89,0,6.46-2.4,6.46-5.11,0-3.28-2.62-4.63-5.81-6-1.7-.74-2.79-1.22-2.79-2.36,0-.65.48-1.31,2-1.31a10,10,0,0,1,3.59.92.92.92,0,0,0,1.13-.35l.79-1.48a1,1,0,0,0-.35-1.27,9.8,9.8,0,0,0-5.16-1.36c-4.19,0-6,2.63-6,4.81,0,2.88,2.27,4.54,5,5.72,2.4,1.09,3.36,1.66,3.36,2.84,0,1-.83,1.48-2.14,1.48a9.07,9.07,0,0,1-4.06-1.13.75.75,0,0,0-1.09.22l-.92,1.7a.75.75,0,0,0,.26.92m-22-9,5.32-12h.22l5.38,12Zm-8.13,10.39h2.75a1.1,1.1,0,0,0,1-.65c.87-2,1.79-4,2.66-6h14.28l2.71,6a1,1,0,0,0,1,.65h2.75a.77.77,0,0,0,.74-1.13l-13.32-29.4a1,1,0,0,0-.74-.48h-.44a1,1,0,0,0-.74.48l-13.41,29.4a.77.77,0,0,0,.74,1.13m-24.76,6.86c0-2,2.14-2.67,2.4-2.75,1.27-.09,2.58-.09,3.85-.09,2.83,0,3.27,1.79,3.27,2.49,0,2.1-2.31,3.45-5,3.45s-4.54-1.31-4.54-3.1m4.63-13a3.78,3.78,0,0,1-3.84-4,3.78,3.78,0,0,1,3.84-4,3.68,3.68,0,0,1,3.67,4c0,2.36-1.49,4-3.67,4M310,42.74a4.51,4.51,0,0,0,3.24,4.37v.13a4.82,4.82,0,0,0-2.58,4.11c0,2.84,2.49,6,8.65,6,5.81,0,9.3-3.41,9.3-7.25s-3.06-5.85-6.86-5.85h-5.94a1.86,1.86,0,0,1-2.09-1.79,2.39,2.39,0,0,1,1.79-2.14,12.81,12.81,0,0,0,3.8.7,7.14,7.14,0,0,0,7.42-7.12,5.86,5.86,0,0,0-1.88-4.68l2.41-.65c.3,0,.48-.44.48-.74V26.72a.81.81,0,0,0-.83-.84H319.3a7.49,7.49,0,0,0-7.51,7.65,7,7,0,0,0,1.35,4.23,6,6,0,0,0-3.1,5M289.6,43a.86.86,0,0,0,.83.83h2.28c.74,0,1-.26,1-.83V32.31a5.77,5.77,0,0,1,4.85-2.63c2.27,0,3.62,1.53,3.62,4.33v9a.83.83,0,0,0,.83.83h2.49a.85.85,0,0,0,.83-.83V34.18c0-4.54-2-8.3-7.29-8.3a8.94,8.94,0,0,0-6.12,2.45l-.52-1.48a.71.71,0,0,0-.7-.53h-1.27a.87.87,0,0,0-.83.83Zm-9.82,0a.85.85,0,0,0,.83.83h2.49a.86.86,0,0,0,.83-.83V27.15a.87.87,0,0,0-.83-.83h-2.49a.86.86,0,0,0-.83.83Zm2-23.76a2.56,2.56,0,1,0-2.49-2.53,2.49,2.49,0,0,0,2.49,2.53M270,43a.85.85,0,0,0,.83.83h2.49a.85.85,0,0,0,.83-.83V14.05a.85.85,0,0,0-.83-.83h-2.49a.85.85,0,0,0-.83.83Zm-9.82,0a.85.85,0,0,0,.82.83h2.5a.85.85,0,0,0,.82-.83V14.05a.85.85,0,0,0-.82-.83H261a.85.85,0,0,0-.82.83ZM243.4,33.13a4.42,4.42,0,0,1,4.45-3.88,4.13,4.13,0,0,1,4,3.88Zm-4.24,1.93c0,5,3.5,9.17,8.78,9.17A10,10,0,0,0,254.4,42a.67.67,0,0,0,.09-1.13l-1.22-1.66c-.35-.44-.66-.26-1.18,0a7.41,7.41,0,0,1-3.89,1.27,5.06,5.06,0,0,1-5-4.67h11.88a.82.82,0,0,0,.79-.75,11.5,11.5,0,0,0,.08-1.18,7.86,7.86,0,0,0-8-8.08c-5.24,0-8.74,4.24-8.74,9.18m-22.49,5.72a14.17,14.17,0,0,0,9.39,3.45c5.68,0,9.74-3.71,9.74-8.26,0-5.32-4.32-7.73-9.39-9.78-3.62-1.48-5.55-3-5.55-5.5,0-1.62,1.27-3.93,4.94-3.93,2.53,0,5.59,2,5.9,2.18a1,1,0,0,0,1.52-.44l1.1-1.66a1,1,0,0,0-.27-1.48A14.72,14.72,0,0,0,226,12.78c-6.94,0-9.56,4.68-9.56,8.08,0,5.07,3.49,7.38,8,9.26S231,33.57,231,36.19c0,2.23-1.92,4.06-4.93,4.06-3.37,0-6.73-2.79-7-3a1,1,0,0,0-1.49.35c-.39.57-.74,1.22-1.13,1.79-.44.74-.13,1,.26,1.4m-15.42-7.65a4.43,4.43,0,0,1,4.46-3.88,4.13,4.13,0,0,1,4,3.88ZM197,35.06c0,5,3.49,9.17,8.78,9.17A10,10,0,0,0,212.26,42a.68.68,0,0,0,.09-1.13l-1.23-1.66c-.34-.44-.65-.26-1.17,0a7.47,7.47,0,0,1-3.89,1.27,5,5,0,0,1-5-4.67h11.88a.8.8,0,0,0,.78-.75,11.49,11.49,0,0,0,.09-1.18,7.87,7.87,0,0,0-8-8.08c-5.24,0-8.73,4.24-8.73,9.18M176.49,36c0,4.55,1.84,8.26,7.08,8.26a7.9,7.9,0,0,0,5.76-2.4l.44,1.26c.13.4.35.7.78.7h1.23a.86.86,0,0,0,.83-.83V27.15a.87.87,0,0,0-.83-.83h-2.27c-.62,0-1,.13-1,.83V37.59a4.66,4.66,0,0,1-4.33,2.88c-2.23,0-3.58-1.53-3.58-4.37v-9a.86.86,0,0,0-.83-.83h-2.49a.86.86,0,0,0-.83.83Zm-9.56,7a.85.85,0,0,0,.83.83h2.49a.86.86,0,0,0,.83-.83V14.05a.86.86,0,0,0-.83-.83h-2.49a.85.85,0,0,0-.83.83ZM151,38.33c0-1.79,1.44-2.88,3.53-2.88a6.48,6.48,0,0,1,3.06.7v2.79a5.14,5.14,0,0,1-3.93,2.19,2.63,2.63,0,0,1-2.66-2.8m-3.8.05c0,3.62,2.36,5.85,5.63,5.85A7.51,7.51,0,0,0,158.19,42l.44,1.18c.17.44.35.61.74.61h1.22a.85.85,0,0,0,.83-.83v-9.3c0-4.37-.52-7.78-6.11-7.78a18,18,0,0,0-6,1,.79.79,0,0,0-.57,1l.36,1.62c.13.48.43.83,1,.7a18.54,18.54,0,0,1,4.89-.79c2.22,0,2.75,1.09,2.7,3.85a12.39,12.39,0,0,0-3.45-.53c-4.45,0-7,2.45-7,5.64m-13.11,5.37a.91.91,0,0,0,.75.48h.43a.85.85,0,0,0,.75-.48l13.4-29.4a.76.76,0,0,0-.74-1.13h-3.1a.8.8,0,0,0-.74.48l-9.61,21.62H135L125.35,13.7a.85.85,0,0,0-.74-.48h-3.1a.77.77,0,0,0-.75,1.13Z" transform="translate(0 -0.07)"/><path class="cls-1" d="M39,15.91a13.63,13.63,0,0,1,1.69-6.52h0l-10.46,21h-.53L15,1A1.75,1.75,0,0,0,13.51.07H1.69C.36.07-.36,1.12.18,2.16L27.9,56.43a1.71,1.71,0,0,0,1.51.88h.89a1.71,1.71,0,0,0,1.51-.88L46.25,28.35C42.12,25.36,39,21.31,39,15.91Z" transform="translate(0 -0.07)"/><path class="cls-2" d="M81.57,39c-1.2-9.52-11.54-14-18.19-16.28C56.21,20.21,53.49,18,53.49,15c0-2.15,2.45-4.06,5.71-4.06,5.54,0,12.15,4.38,13,4.78.81.56,2.45-.16,3.08-1l4.63-6.13A1.86,1.86,0,0,0,79.33,6a36.63,36.63,0,0,0-19.4-6c-.65,0-1.29,0-1.91,0C49.1.61,43.33,4.51,40.68,9.39h0A13.63,13.63,0,0,0,39,15.91c0,5.4,3.13,9.45,7.26,12.44A40.65,40.65,0,0,0,56.57,33.5c6.17,2.15,9.34,4.7,9.34,8,0,2.78-2.63,4.77-6.25,4.77-6,0-12.52-4.21-12.88-4.37a2.57,2.57,0,0,0-3.08.47L39.44,49c-.73,1.12-.45,1.43.45,2.23,2.09,1.83,8.62,6.13,20.4,6.13,13.33,0,21.4-8.28,21.4-16.48A14.22,14.22,0,0,0,81.57,39Z" transform="translate(0 -0.07)"/><path class="cls-3" d="M120.65,55.22c.53,1-.18,2.09-1.51,2.09H107.32a1.75,1.75,0,0,1-1.51-.89L91.15,27h-.54L76,56.42a1.73,1.73,0,0,1-1.51.89H62.62c-1.33,0-2-1.05-1.51-2.09L89,1A1.7,1.7,0,0,1,90.52.07h.89A1.69,1.69,0,0,1,92.92,1Z" transform="translate(0 -0.07)"/><path class="cls-4" d="M58.55.07C49.41.43,43.48,4.31,40.74,9.22l-.57,1.15A13.49,13.49,0,0,0,39,15.88c0,5.4,3.13,9.45,7.26,12.44L59.71,2.14A1.39,1.39,0,0,0,58.55.07Z" transform="translate(0 -0.07)"/></svg>